<?xml version="1.0" encoding="UTF-8"?>
<svg width="1609.3" height="1056" version="1.1" viewBox="0 0 1609.3 1056" xmlns="http://www.w3.org/2000/svg">
 <g transform="translate(-544.54 -677.99)">
  <path d="m545.87 680.66-1.3333 886.67h16l-1.3333-873.33 1593.3-14.667-41.333-1.3333h-421.33l-1144 2.6666m166.67 166.67v720h480v-486.67h-440v-233.33h-40m533.33 240v156h16v-140h172v-16h-188m204 0v101.33l-0.8 43.98-25.867 25.132-66.667 58.888v1.3333l21.333-0.8 18.667-14.973 36-31.847 141.33-125.33 44-38.947 18.667-18.767c-6.56 0-15.093-1.4293-21.333 0.7987-15.36 5.4786-30.613 25.551-42.667 36.313-35.387 31.601-69.88 64.933-106.67 94.888v-92l-0.8-36.909-15.2-3.0907m204 0v16h116v1.3333c-29.28 13.916-56.28 39.239-82.667 58.105-9.1867 6.564-26.507 14.641-31.96 24.685-6.92 12.716-1.3733 41.433-1.3733 55.876h188v-156h-188m204 0v156h14.667v-102.67c0-7.9093-3.7333-29.321 2.1334-35.196 6.4533-6.4441 31.747-2.1373 40.533-2.1373h114.67v140h16v-156h-188m-32 16v125.33h-156c0-8.8533-2.9067-23.96 1.3733-31.88 6.5333-12.116 27.693-22.417 38.627-30.617 19.053-14.296 38.28-28.373 57.333-42.667 8.2667-6.1986 17.973-16.525 28-19.485 9.12-2.6921 21.2-0.684 30.667-0.684m-674.67 38.667 1.3333 365.33h-400v-365.33h398.67m1e3 233.33v350.67l-1598.7-5.3333v13.333l1601.3-5.3333v-326.67l-2.6667-26.667m-905.33 32v17.333h117.33v1.3333c-10.653 4.0933-20.067 13-29.333 19.613-19.16 13.653-38.2 27.48-57.333 41.16-8.1466 5.8267-25.947 13.973-29.867 23.453-6.0161 14.573-0.8 41.307-0.8 57.107h192v-160h-192m208 0v160h16v-142.67h176v-17.333h-192m-32 17.333v126.67h-160c0-8.5333-3-24.093 1.3733-31.6 7.3867-12.653 29.6-23.467 41.293-32.227 19.067-14.28 38.28-28.373 57.333-42.667 8.2666-6.2 17.973-16.533 28-19.493 9.4933-2.8 22.147-0.68 32-0.68z" fill="#050505"/>
 </g>
</svg>
