<?xml version="1.0" encoding="UTF-8" standalone="no"?>
<svg
   xmlns:dc="http://purl.org/dc/elements/1.1/"
   xmlns:cc="http://creativecommons.org/ns#"
   xmlns:rdf="http://www.w3.org/1999/02/22-rdf-syntax-ns#"
   xmlns:svg="http://www.w3.org/2000/svg"
   xmlns="http://www.w3.org/2000/svg"
   viewBox="0 0 1609.3335 1056"
   height="1056"
   width="1609.3335"
   id="svg10"
   version="1.1">
  <metadata
     id="metadata16">
    <rdf:RDF>
      <cc:Work
         rdf:about="">
        <dc:format>image/svg+xml</dc:format>
        <dc:type
           rdf:resource="http://purl.org/dc/dcmitype/StillImage" />
        <dc:title></dc:title>
      </cc:Work>
    </rdf:RDF>
  </metadata>
  <defs
     id="defs14" />
  <g
     transform="translate(-544.54038,-677.99255)"
     id="g18">
    <path
       id="path22"
       d="m 545.87371,680.65915 -1.33333,886.66675 h 16 l -1.33334,-873.33335 1593.33346,-14.6667 -41.3333,-1.3333 h -94.6667 -326.6666 l -1144.00019,2.6666 m 166.66669,166.6667 v 720.00005 h 480.0001 V 1080.6591 H 752.5404 V 847.32585 h -40 m 533.3335,239.99995 v 156.0001 h 16 v -140 h 172 v -16.0001 h -188 m 204,0 v 101.3334 l -0.8,43.98 -25.8667,25.132 -66.6667,58.8881 v 1.3333 l 21.3334,-0.8 18.6666,-14.9733 36,-31.8467 141.3334,-125.3334 44,-38.9466 18.6666,-18.7668 c -6.56,0 -15.0933,-1.4293 -21.3333,0.7987 -15.36,5.4786 -30.6133,25.5507 -42.6667,36.3134 -35.3866,31.6013 -69.88,64.9333 -106.6666,94.888 v -92 l -0.8,-36.9094 -15.2,-3.0907 m 204,0 v 16.0001 h 116 v 1.3333 c -29.28,13.916 -56.28,39.2387 -82.6667,58.1054 -9.1867,6.564 -26.5067,14.6413 -31.96,24.6853 -6.92,12.716 -1.3733,41.4333 -1.3733,55.876 h 188 v -156.0001 h -188 m 204,0 v 156.0001 h 14.6666 v -102.6667 c 0,-7.9093 -3.7333,-29.3213 2.1334,-35.196 6.4533,-6.4441 31.7466,-2.1373 40.5333,-2.1373 h 114.6667 v 140 h 16 v -156.0001 h -188 m -32,16.0001 v 125.3333 h -156 c 0,-8.8533 -2.9067,-23.96 1.3733,-31.88 6.5333,-12.116 27.6933,-22.4173 38.6267,-30.6173 19.0533,-14.296 38.28,-28.3733 57.3333,-42.6667 8.2667,-6.1986 17.9733,-16.5253 28,-19.4853 9.12,-2.6921 21.2,-0.684 30.6667,-0.684 m -674.6668,38.6667 1.3333,365.3333 h -400 v -365.3333 h 398.6667 m 1000.0001,233.3333 v 350.6667 l -1598.66682,-5.3333 v 13.3333 l 1601.33352,-5.3333 v -260 -66.6667 l -2.6667,-26.6667 m -905.3333,32 v 17.3334 h 117.3333 v 1.3333 c -10.6533,4.0933 -20.0667,13 -29.3333,19.6133 -19.16,13.6534 -38.2,27.48 -57.3334,41.16 -8.1466,5.8267 -25.9466,13.9734 -29.8666,23.4534 -6.0161,14.5733 -0.8,41.3066 -0.8,57.1066 h 192 v -160 h -192 m 208,0 v 160 h 16 v -142.6666 h 176 v -17.3334 h -192 m -32,17.3334 v 126.6666 h -160 c 0,-8.5333 -3,-24.0933 1.3733,-31.6 7.3867,-12.6533 29.6,-23.4666 41.2933,-32.2266 19.0667,-14.28 38.28,-28.3734 57.3334,-42.6667 8.2666,-6.2 17.9733,-16.5333 28,-19.4933 9.4933,-2.8 22.1466,-0.68 32,-0.68 z"
       style="fill:#050505;stroke:none;stroke-width:1.33333" />
  </g>
</svg>
